<?xml version="1.0" encoding="UTF-8" standalone="no"?>
<svg
   width="96"
   height="32"
   viewBox="0 0 96 32"
   fill="none"
   version="1.1"
   id="svg19"
   sodipodi:docname="Octicons-mark-github-original.svg"
   inkscape:version="1.1 (c68e22c387, 2021-05-23)"
   xmlns:inkscape="http://www.inkscape.org/namespaces/inkscape"
   xmlns:sodipodi="http://sodipodi.sourceforge.net/DTD/sodipodi-0.dtd"
   xmlns="http://www.w3.org/2000/svg"
   xmlns:svg="http://www.w3.org/2000/svg">
  <defs
     id="defs23" />
  <sodipodi:namedview
     id="namedview21"
     pagecolor="#ffffff"
     bordercolor="#666666"
     borderopacity="1.0"
     inkscape:pageshadow="2"
     inkscape:pageopacity="1"
     inkscape:pagecheckerboard="0"
     showgrid="false"
     height="32px"
     inkscape:zoom="6.3694853"
     inkscape:cx="10.8329"
     inkscape:cy="27.553247"
     inkscape:window-width="1366"
     inkscape:window-height="745"
     inkscape:window-x="-8"
     inkscape:window-y="-8"
     inkscape:window-maximized="1"
     inkscape:current-layer="svg19" />
  <path
     fill-rule="evenodd"
     clip-rule="evenodd"
     d="M 15.379408,0 C 6.8822849,0 0,6.8822849 0,15.379408 c 0,6.805388 4.4023554,12.553441 10.51567,14.591213 0.76897,0.134569 1.057334,-0.326813 1.057334,-0.730522 0,-0.365261 -0.01922,-1.576389 -0.01922,-2.864415 C 7.6897038,27.086982 6.6900423,25.433695 6.3824542,24.568604 6.2094358,24.126446 5.4596897,22.761523 4.8060649,22.396262 4.2677856,22.107898 3.4988152,21.396601 4.7868406,21.377377 c 1.2111284,-0.01922 2.0762201,1.115007 2.364584,1.576389 1.3841466,2.326135 3.5949364,1.67251 4.4792524,1.268801 0.13457,-0.999661 0.538279,-1.672511 0.980437,-2.056996 -3.4219179,-0.384485 -6.9976302,-1.710959 -6.9976302,-7.593582 0,-1.672511 0.595952,-3.056658 1.5763893,-4.133216 C 7.036079,10.054288 6.4977997,8.4778985 7.3436672,6.3632299 c 0,0 1.2880253,-0.4037094 4.2293368,1.5763893 1.230353,-0.3460367 2.537603,-0.519055 3.844852,-0.519055 1.30725,0 2.614499,0.1730183 3.844852,0.519055 2.941312,-1.999323 4.229337,-1.5763893 4.229337,-1.5763893 0.845868,2.1146686 0.307588,3.6910581 0.153794,4.0755431 0.980437,1.076558 1.57639,2.441481 1.57639,4.133216 0,5.901847 -3.594937,7.209097 -7.016855,7.593582 0.557503,0.480607 1.03811,1.403371 1.03811,2.845191 0,2.056995 -0.01922,3.710282 -0.01922,4.229337 0,0.403709 0.288363,0.884316 1.057334,0.730522 C 26.35646,27.932849 30.758815,22.165571 30.758815,15.379408 30.758815,6.8822849 23.87653,0 15.379408,0 Z"
     fill="#1b1f23"
     id="path17"
     style="stroke-width:1.92243" />
</svg>
